<svg id="Capa_1" enable-background="new 0 0 511.999 511.999" viewBox="0 0 511.999 511.999" xmlns="http://www.w3.org/2000/svg"><g><path d="m508.719 144.36c-1.127-1.229-2.486-2.199-3.974-2.887v-41.52c0-4.143-3.357-7.5-7.5-7.5s-7.5 3.357-7.5 7.5v40.354h-14.396v-40.354c0-4.143-3.357-7.5-7.5-7.5s-7.5 3.357-7.5 7.5v40.354h-14.396v-40.354c0-4.143-3.357-7.5-7.5-7.5s-7.5 3.357-7.5 7.5v38.59c-17.81-26.466-41.503-48.73-69.124-64.801-32.003-18.62-68.599-28.462-105.829-28.462-24.028 0-47.598 4.013-70.053 11.927-3.906 1.376-5.957 5.659-4.58 9.566 1.377 3.906 5.66 5.961 9.566 4.58 20.849-7.348 42.741-11.073 65.067-11.073 34.584 0 68.57 9.139 98.284 26.428 28.561 16.617 52.609 40.357 69.621 68.683 1.353 12.361 6.027 23.841 13.262 32.468 5.313 6.335 8.239 14.082 8.239 21.814v21.56c-4.127 2.194-6.946 6.535-6.946 11.526v84.223c-14.172 36.349-38.638 67.408-70.801 89.783-32.86 22.867-71.472 34.954-111.659 34.954-40.244 0-78.9-12.118-111.789-35.044-31.949-22.271-56.298-53.102-70.461-89.189v-84.727c0-4.991-2.818-9.333-6.942-11.527v-21.559c0-7.732 2.926-15.479 8.24-21.814 7.43-8.861 12.035-20.352 13.308-32.9 17.506-28.984 42.332-53.07 71.851-69.672 3.61-2.03 4.891-6.604 2.86-10.214s-6.604-4.89-10.214-2.86c-25.994 14.62-48.612 34.626-66.298 58.503-5.786-22.181-22.507-38.263-42.19-38.263-24.463 0-44.365 24.832-44.365 55.354 0 15.308 4.859 29.531 13.683 40.052 5.313 6.335 8.239 14.082 8.239 21.814v21.559c-4.124 2.194-6.941 6.535-6.941 11.527v28.65c0 4.143 3.357 7.5 7.5 7.5s7.5-3.357 7.5-7.5v-26.7h28.77v146.85c0 7.163-5.827 12.99-12.99 12.99h-2.79c-7.162 0-12.989-5.827-12.989-12.99v-85.149c0-4.143-3.357-7.5-7.5-7.5s-7.5 3.357-7.5 7.5v85.149c0 15.434 12.556 27.99 27.989 27.99h2.79c15.434 0 27.99-12.557 27.99-27.99v-29.687c15.374 26.472 36.376 49.327 61.884 67.107 35.417 24.689 77.039 37.739 120.366 37.739 43.267 0 84.84-13.017 120.227-37.642 25.681-17.872 46.811-40.889 62.233-67.565v30.046c0 15.434 12.557 27.99 27.99 27.99h2.8c15.429 0 27.98-12.557 27.98-27.99v-21.487c0-4.143-3.357-7.5-7.5-7.5s-7.5 3.357-7.5 7.5v21.489c0 7.163-5.823 12.99-12.98 12.99h-2.8c-7.163 0-12.99-5.827-12.99-12.99v-146.85h28.771v90.36c0 4.143 3.357 7.5 7.5 7.5s7.5-3.357 7.5-7.5v-92.311c0-4.99-2.816-9.331-6.939-11.525v-21.561c0-7.732 2.926-15.479 8.239-21.814 7.535-8.984 12.303-21.061 13.423-34.008.298-3.464-.881-6.923-3.236-9.49zm-493.719 3.447c0-22.252 13.173-40.354 29.365-40.354 16.191 0 29.364 18.103 29.364 40.354 0 11.617-3.709 22.702-10.175 30.413-7.575 9.031-11.747 20.201-11.747 31.453v20.036h-14.885v-20.036c0-11.251-4.171-22.422-11.746-31.453-6.467-7.711-10.176-18.796-10.176-30.413zm472.038 30.413c-7.575 9.031-11.747 20.201-11.747 31.453v20.036h-14.885v-20.036c0-11.252-4.172-22.422-11.747-31.453-5.053-6.025-8.437-14.08-9.662-22.913h57.703c-1.226 8.833-4.609 16.888-9.662 22.913z"/><path d="m310.862 410.416c1.562 3.836 5.936 5.681 9.773 4.121 31.145-12.671 57.689-34.078 76.766-61.908 19.54-28.506 29.868-61.909 29.868-96.599 0-94.328-76.741-171.07-171.069-171.07s-171.07 76.742-171.07 171.07c0 94.322 76.742 171.06 171.07 171.06 9.726 0 19.488-.829 29.021-2.466 3.634-.52 6.424-3.646 6.424-7.424.045-4.602-4.261-8.211-8.783-7.391-6.436 1.112-12.99 1.818-19.561 2.115v-25.788c0-4.143-3.357-7.5-7.5-7.5s-7.5 3.357-7.5 7.5v25.754c-22.936-1.149-44.579-7.277-63.878-17.315l4.764-8.25c2.071-3.587.842-8.174-2.745-10.245-3.587-2.07-8.174-.844-10.245 2.745l-4.733 8.198c-18.676-12.121-34.614-28.118-46.654-46.851l8.165-4.714c3.587-2.071 4.816-6.658 2.745-10.245-2.07-3.588-6.66-4.815-10.245-2.745l-8.16 4.711c-9.937-19.315-15.954-40.96-17.011-63.878h25.558c4.143 0 7.5-3.357 7.5-7.5s-3.357-7.5-7.5-7.5h-25.541c1.123-22.908 7.21-44.531 17.202-63.82l8.15 4.706c1.181.682 2.471 1.006 3.743 1.006 2.592 0 5.112-1.345 6.502-3.751 2.071-3.587.842-8.174-2.745-10.245l-8.118-4.688c12.088-18.691 28.058-34.646 46.762-46.715l4.723 8.181c1.389 2.406 3.91 3.751 6.502 3.751 1.272 0 2.562-.324 3.743-1.006 3.587-2.071 4.816-6.658 2.745-10.245l-4.733-8.198c19.315-9.98 40.967-16.042 63.9-17.133v22.768c-7.792 3.02-13.341 10.577-13.341 19.422v75.045c-6.148 3.299-11.417 8.025-15.372 13.729h-40.784c-13.835 0-25.09 11.255-25.09 25.09s11.255 25.09 25.09 25.09h41.068c7.943 11.191 20.994 18.515 35.732 18.515 24.153 0 43.803-19.649 43.803-43.803 0-16.532-9.208-30.951-22.764-38.406v-75.26c0-8.845-5.549-16.402-13.341-19.422v-22.769c22.953 1.091 44.621 7.163 63.949 17.157l-4.834 8.373c-2.071 3.587-.842 8.174 2.745 10.245 1.181.682 2.471 1.006 3.743 1.006 2.592 0 5.112-1.345 6.502-3.751l4.822-8.351c18.741 12.101 34.737 28.104 46.828 46.852l-8.428 4.866c-3.587 2.071-4.816 6.658-2.745 10.245 1.389 2.406 3.91 3.751 6.502 3.751 1.272 0 2.562-.324 3.743-1.006l8.443-4.875c9.996 19.355 16.056 41.057 17.125 64.042h-25.956c-4.143 0-7.5 3.357-7.5 7.5s3.357 7.5 7.5 7.5h25.925c-1.088 22.486-6.949 44.229-17.219 64.031l-8.516-4.917c-3.586-2.071-8.173-.843-10.245 2.745-2.071 3.587-.842 8.174 2.745 10.245l8.475 4.893c-.748 1.156-1.492 2.314-2.272 3.452-11.959 17.448-27.134 32.127-44.673 43.356l-4.896-8.48c-2.07-3.587-6.659-4.815-10.245-2.745-3.587 2.071-4.816 6.658-2.745 10.245l4.867 8.43c-4.024 2.06-8.135 3.972-12.352 5.688-3.84 1.564-5.684 5.939-4.124 9.776zm-131.662-144.128c-5.563 0-10.09-4.526-10.09-10.09 0-5.563 4.526-10.09 10.09-10.09h34.137c-.737 3.181-1.14 6.489-1.14 9.892 0 3.544.434 6.986 1.232 10.288zm76.8 18.514c-15.882 0-28.803-12.921-28.803-28.803s12.921-28.803 28.803-28.803 28.803 12.921 28.803 28.803-12.921 28.803-28.803 28.803zm0-72.605c-1.913 0-3.793.137-5.643.376v-70.239c0-3.221 2.62-5.841 5.841-5.841s5.841 2.62 5.841 5.841v70.29c-1.976-.275-3.989-.427-6.039-.427z"/></g><g/><g/><g/><g/><g/><g/><g/><g/><g/><g/><g/><g/><g/><g/><g/></svg>