<svg width="36" height="4" viewBox="0 0 36 4" fill="none" xmlns="http://www.w3.org/2000/svg">
<path d="M1.45609 3.98C1.17609 3.75333 0.936094 3.47333 0.736094 3.14C0.549427 2.79333 0.416094 2.43333 0.336094 2.06C0.589427 1.79333 0.882761 1.56 1.21609 1.36C1.54943 1.16 1.90276 1.03333 2.27609 0.98C2.54276 1.22 2.77609 1.51333 2.97609 1.86C3.17609 2.19333 3.30276 2.53333 3.35609 2.88C3.12943 3.16 2.84276 3.4 2.49609 3.6C2.14943 3.8 1.80276 3.92667 1.45609 3.98ZM8.72469 1.58H27.2847V3.24H8.72469V1.58ZM33.9561 3.98C33.6761 3.75333 33.4361 3.47333 33.2361 3.14C33.0494 2.79333 32.9161 2.43333 32.8361 2.06C33.0894 1.79333 33.3828 1.56 33.7161 1.36C34.0494 1.16 34.4028 1.03333 34.7761 0.98C35.0428 1.22 35.2761 1.51333 35.4761 1.86C35.6761 2.19333 35.8028 2.53333 35.8561 2.88C35.6294 3.16 35.3428 3.4 34.9961 3.6C34.6494 3.8 34.3028 3.92667 33.9561 3.98Z" fill="black"/>
</svg>
