<?xml version="1.0" standalone="no"?>
<!DOCTYPE svg PUBLIC "-//W3C//DTD SVG 20010904//EN"
 "http://www.w3.org/TR/2001/REC-SVG-20010904/DTD/svg10.dtd">
<svg version="1.0" xmlns="http://www.w3.org/2000/svg"
 width="500.000000pt" height="500.000000pt" viewBox="0 0 500.000000 500.000000"
 preserveAspectRatio="xMidYMid meet">
<metadata>
Created by potrace 1.14, written by Peter Selinger 2001-2017
</metadata>
<g transform="translate(0.000000,500.000000) scale(0.100000,-0.100000)"
fill="#000000" stroke="none">
<path d="M1223 3848 c7 -18 296 -813 643 -1765 346 -953 631 -1733 634 -1733
3 0 284 766 624 1703 341 936 630 1730 643 1765 l23 62 -1035 0 -1035 0 0 -85
0 -85 911 0 c901 0 911 0 906 -20 -14 -53 -1031 -2840 -1037 -2840 -4 0 -254
681 -556 1513 l-550 1512 -92 3 -93 3 14 -33z"/>
</g>
</svg>
