<svg height="512pt" viewBox="0 0 512 512.00004" width="512pt" xmlns="http://www.w3.org/2000/svg"><path d="m137.730469 374.269531c-17.609375-17.605469-46.03125-17.605469-63.640625 0-3.605469 3.605469-6.574219 7.851563-8.695313 12.515625l-54.945312 114.765625 114.765625-54.945312c4.664062-2.121094 8.910156-5.089844 12.515625-8.695313 17.609375-17.609375 17.609375-46.03125 0-63.640625zm0 0" fill="#ffda2d"/><path d="m137.730469 437.910156c-3.605469 3.605469-7.851563 6.574219-12.515625 8.695313l-114.765625 54.945312 127.28125-127.28125c17.609375 17.609375 17.609375 46.03125 0 63.640625zm0 0" fill="#eebf00"/><path d="m329.125 336.523438-131.855469 51.292968 24.828125 124.183594 24.898438-10.648438c64.363281-27.59375 98.898437-96.910156 82.128906-164.828124zm0 0" fill="#d94f88"/><path d="m175.476562 182.875c-67.917968-16.769531-137.234374 17.761719-164.839843 82.136719l-10.636719 24.890625 124.183594 24.828125zm0 0" fill="#ff7cb9"/><path d="m486.058594 152.855469-83.789063-41.367188-.636719-1.058593-42.425781-84.429688c86.125-32.667969 140.640625-24.820312 152.734375-25.878906-.425781 6.363281 4.453125 72.761718-25.882812 152.734375zm0 0" fill="#ff7cb9"/><path d="m402.269531 111.488281-.636719-1.058593 110.308594-110.308594c-.425781 6.363281 4.453125 72.761718-25.882812 152.734375zm0 0" fill="#d94f88"/><path d="m486.058594 152.855469-126.851563-126.855469c-78.066406 29.699219-159.535156 95.835938-205.566406 172.410156-3.605469 6.15625-52.820313 88.035156-56.003906 93.339844l8.273437 50.699219 63.640625 63.640625 50.699219 8.273437c35.425781-21 93.339844-56.003906 93.550781-56.214843 76.578125-46.035157 142.347657-127.015626 172.257813-205.292969zm0 0" fill="#f2f2fc"/><path d="m313.800781 358.148438c-.210937.210937-58.125 35.210937-93.550781 56.214843l-50.699219-8.273437-31.820312-31.820313 284.902343-284.839843 63.425782 63.425781c-29.910156 78.277343-95.679688 159.257812-172.257813 205.292969zm0 0" fill="#d8d8fc"/><path d="m220.25 414.363281-53.03125 31.820313-101.402344-101.402344 31.820313-53.03125zm0 0" fill="#47568c"/><path d="m220.25 414.363281-53.03125 31.820313-50.703125-50.699219 42.429687-42.429687zm0 0" fill="#2c3b73"/><path d="m349.863281 162.136719c-23.335937-23.332031-61.519531-23.332031-84.855469 0-23.332031 23.335937-23.332031 61.519531 0 84.855469 23.335938 23.332031 61.519532 23.332031 84.855469 0 23.332031-23.335938 23.332031-61.519532 0-84.855469zm0 0" fill="#64e1dc"/><path d="m233.191406 257.59375 21.210938 21.214844-116.671875 116.671875-21.210938-21.214844zm0 0"/><path d="m105.90625 384.875 127.28125-127.277344 21.210938 21.210938-127.277344 127.277344zm0 0" fill="#ff7cb9"/><path d="m127.125 406.09375-10.609375-10.609375 127.277344-127.277344 10.609375 10.609375zm0 0" fill="#d94f88"/><path d="m349.863281 246.988281c-23.335937 23.335938-61.519531 23.335938-84.855469 0l84.855469-84.851562c23.332031 23.335937 23.332031 61.519531 0 84.851562zm0 0" fill="#00c8c8"/></svg>