<?xml version="1.0" encoding="UTF-8"?>
<svg xmlns="http://www.w3.org/2000/svg" xmlns:xlink="http://www.w3.org/1999/xlink" xmlns:svgjs="http://svgjs.com/svgjs" version="1.1" width="512" height="512" x="0" y="0" viewBox="0 0 512 512" style="enable-background:new 0 0 512 512" xml:space="preserve" class="">
  <g>
    <path fill="#78c1e5" d="M512 45c0-24.853-20.147-45-45-45H45C20.147 0 0 20.147 0 45v90c0 8.284 6.716 15 15 15h482c8.284 0 15-6.716 15-15z" data-original="#7d81e7" class=""/>
    <path fill="#5fb6e0" d="M467 0H256v150h241c8.284 0 15-6.716 15-15V45c0-24.853-20.147-45-45-45z" data-original="#5e69e2" class=""/>
    <path fill="#fff79f" d="M81 82.5H61c-8.284 0-15-6.716-15-15s6.716-15 15-15h20c8.284 0 15 6.716 15 15s-6.716 15-15 15z" data-original="#fff79f" class=""/>
    <path fill="#90e36a" d="M161 82.5h-20c-8.284 0-15-6.716-15-15s6.716-15 15-15h20c8.284 0 15 6.716 15 15s-6.716 15-15 15z" data-original="#90e36a" class=""/>
    <path fill="#ff80a7" d="M241 82.5h-20c-8.284 0-15-6.716-15-15s6.716-15 15-15h20c8.284 0 15 6.716 15 15s-6.716 15-15 15z" data-original="#ff80a7" class=""/>
    <path fill="#f9f9f9" d="M0 135v332c0 24.813 20.187 45 45 45h422c24.813 0 45-20.187 45-45V135z" data-original="#f9f9f9" class=""/>
    <path fill="#e2dff4" d="M256 512h211c24.813 0 45-20.187 45-45V135H256z" data-original="#e2dff4" class=""/>
    <path fill="#0a789b" d="M173.078 377.005c-10.979 0-11.626-.111-12.339-.233a10 10 0 0 1-8.311-9.856V267c0-5.523 4.478-10 10-10s10 4.477 10 10v90a5131.81 5131.81 0 0 0 24.962-.084h.057c5.497 0 9.968 4.44 9.999 9.944.03 5.522-4.421 10.024-9.944 10.056a4682.75 4682.75 0 0 1-24.424.089zM116.811 309.839a32.834 32.834 0 0 0 6.638-19.829c0-18.202-14.809-33.01-33.01-33.01H61.392c-5.522 0-10 4.477-10 10v100c0 2.66 1.06 5.21 2.944 7.087A10.003 10.003 0 0 0 61.392 377h.044c.268-.001 26.811-.119 34.076-.119 20.356 0 36.917-16.561 36.917-36.917 0-12.427-6.179-23.431-15.618-30.125zM90.439 277c7.174 0 13.01 5.836 13.01 13.01s-5.836 13.01-13.01 13.01c-2.139 0-19.048.027-19.048.027V277zm5.073 79.881c-4.385 0-15.704.042-24.12.076V323.08c2.708-.011 24.12-.032 24.12-.032 9.328 0 16.917 7.589 16.917 16.917s-7.589 16.916-16.917 16.916z" data-original="#0a789b" class=""/>
    <path fill="#08475e" d="M407.446 377c-33.084 0-60-26.916-60-60s26.916-60 60-60c12.021 0 23.624 3.545 33.553 10.252 4.576 3.092 5.78 9.308 2.688 13.884-3.091 4.577-9.31 5.779-13.884 2.689-6.61-4.465-14.341-6.826-22.357-6.826-22.056 0-40 17.944-40 40s17.944 40 40 40c20.124 0 29.573-14.565 32.298-30h-19.051c-5.522 0-10-4.477-10-10s4.478-10 10-10h29.915c5.522 0 10 4.477 10 10 0 35.328-21.861 60.001-53.162 60.001z" data-original="#08475e" class=""/>
    <path fill="#0a789b" d="M267.446 377c-33.084 0-60-26.916-60-60s26.916-60 60-60 60 26.916 60 60-26.916 60-60 60zm0-100c-22.056 0-40 17.944-40 40s17.944 40 40 40 40-17.944 40-40-17.944-40-40-40z" data-original="#0a789b" class=""/>
    <path fill="#08475e" d="M267.446 257c-3.915 0-7.739.389-11.446 1.108v20.569A39.857 39.857 0 0 1 267.446 277c22.056 0 40 17.944 40 40s-17.944 40-40 40c-3.977 0-7.818-.592-11.446-1.677v20.569A60.064 60.064 0 0 0 267.446 377c33.084 0 60-26.916 60-60s-26.916-60-60-60z" data-original="#08475e" class=""/>
  </g>
</svg>
