<svg xmlns="http://www.w3.org/2000/svg" version="1.1" xmlns:xlink="http://www.w3.org/1999/xlink" xmlns:svgjs="http://svgjs.dev/svgjs" width="1440" height="560" preserveAspectRatio="none" viewBox="0 0 1440 560"><g mask="url(&quot;#SvgjsMask1250&quot;)" fill="none"><rect width="1440" height="560" x="0" y="0" fill="rgba(95, 182, 224, 1)"></rect><path d="M619.936,395.378C636.424,394.888,652.124,386.448,659.598,371.743C666.506,358.152,661.349,342.535,653.41,329.519C645.875,317.165,634.405,306.909,619.936,306.716C605.171,306.519,592.936,316.231,584.878,328.604C575.815,342.521,568.25,359.525,575.97,374.229C584.072,389.661,602.514,395.896,619.936,395.378" fill="rgba(170, 217, 239, 0.4)" class="triangle-float2"></path><path d="M454.901,410.781C475.896,411.438,493.402,397.203,504.668,379.475C517.006,360.06,526.335,336.059,515.168,315.947C503.778,295.433,478.311,288.252,454.901,289.845C434.179,291.255,416.856,304.821,407.345,323.285C398.623,340.217,401.157,359.785,410.253,376.52C419.855,394.186,434.804,410.152,454.901,410.781" fill="rgba(170, 217, 239, 0.4)" class="triangle-float2"></path><path d="M542.48 372.6 a106.91 106.91 0 1 0 213.82 0 a106.91 106.91 0 1 0 -213.82 0z" fill="rgba(170, 217, 239, 0.4)" class="triangle-float3"></path><path d="M1297.88,118.352C1326.812,120.956,1358.075,112.221,1373.036,87.321C1388.343,61.845,1382.413,29.404,1366.347,4.4C1351.58,-18.583,1325.182,-30.569,1297.88,-29.646C1272.172,-28.777,1248.88,-14.036,1236.987,8.773C1225.901,30.034,1231.348,54.659,1242.995,75.618C1255.066,97.34,1273.129,116.124,1297.88,118.352" fill="rgba(170, 217, 239, 0.4)" class="triangle-float3"></path><path d="M1359.398,295.417C1402.052,293.822,1433.038,259.386,1453.669,222.019C1473.461,186.171,1484.542,142.601,1462.994,107.78C1442.242,74.247,1398.83,70.154,1359.398,69.681C1318.782,69.194,1274.049,71.519,1251.409,105.243C1226.653,142.118,1230.135,190.937,1252.066,229.559C1274.281,268.681,1314.44,297.099,1359.398,295.417" fill="rgba(170, 217, 239, 0.4)" class="triangle-float3"></path><path d="M109.37 14.32 a121.12 121.12 0 1 0 242.24 0 a121.12 121.12 0 1 0 -242.24 0z" fill="rgba(170, 217, 239, 0.4)" class="triangle-float2"></path></g><defs><mask id="SvgjsMask1250"><rect width="1440" height="560" fill="#ffffff"></rect></mask><style>
                @keyframes float1 {
                    0%{transform: translate(0, 0)}
                    50%{transform: translate(-10px, 0)}
                    100%{transform: translate(0, 0)}
                }

                .triangle-float1 {
                    animation: float1 5s infinite;
                }

                @keyframes float2 {
                    0%{transform: translate(0, 0)}
                    50%{transform: translate(-5px, -5px)}
                    100%{transform: translate(0, 0)}
                }

                .triangle-float2 {
                    animation: float2 4s infinite;
                }

                @keyframes float3 {
                    0%{transform: translate(0, 0)}
                    50%{transform: translate(0, -10px)}
                    100%{transform: translate(0, 0)}
                }

                .triangle-float3 {
                    animation: float3 6s infinite;
                }
            </style></defs></svg>